# xmcd
#
# Track frame offsets:
#	150
#	12724
#	31598
#	46594
#	58322
#	70970
#	85297
#	98574
#	112912
#	124506
#	136885
#	151984
#	165061
#	179547
#	203575
#	217264
#	230590
#	244970
#	258429
#	272020
#	286449
#	300083
#	311921
#	324732
#	340943
#
# Disc length: 4726
#
# Revision: 2
# Processed by: cddbd v1.5.1PL0 Copyright (c) Steve Scherf et al.
# Submitted via: CDex 1.51
# Normalized: r0:DSETVAR1,TDELIM( - );r1:TSWAP
#
DISCID=5e127419
DTITLE=Various Artist - Battle Of The Blues (Rare Recordings Of The 30s and 40s)
DYEAR=1900
DGENRE=Jazz
TTITLE0=Joe Turner and Wynonie Harris - Battle Of The Blues
TTITLE1=Jack Teagarden w. Louis Armstrong - Basin Street Blues
TTITLE2=Louis Armstrong - Back O'Town Blues
TTITLE3=Benny Goodman Quartet - The Blues In Your Flat
TTITLE4=Count Basie and His Orchestra - Swinging The Blues
TTITLE5=Glenn Miller and His Orchestra - Farewell Blues
TTITLE6=Fletcher Henderson and His Connie's Inn Orchestra - Blue Rhythm
TTITLE7=Louis Armstrong - West End Blues
TTITLE8=Joe Venuti - Stringin' The Blues
TTITLE9=Earl Hines - Boogie Woogie On St. Louis Blues
TTITLE10=Erskine Hawkins and His Orchestra - After Hours
TTITLE11=Cootie Williams w. Duke Ellington - Jeep's Blues
TTITLE12=Jack Teagarden and His Orchestra - Prelude To The Blues
TTITLE13=Jimmy Lunceford and His Orchestra - Blues In The Night
TTITLE14=Louis Armstrong - Potato Head Blues
TTITLE15=King Oliver w. Ed Anderson - Aunt Hagar's Blues
TTITLE16=Lionel Hampton and His Orchestra - Three Minutes On 52nd Street
TTITLE17=Sidney Bechet w. Earl Hines - Blues In Thirds
TTITLE18=Tommy Ladnier and His Orchestra - Weary Blues
TTITLE19=Woody Herman and His Orchestra - Blues Upstairs
TTITLE20=Muggsy Spanier and His Ragtime Band - Livery Stable Blues
TTITLE21=T-Bone Walker - I Get So Weary
TTITLE22=Nat King Cole Trio - Early Morning Blues
TTITLE23=Sidney Bechet - Really The Blues
TTITLE24=Lu Watters and The Yerba Buena Jazz Band - Beale Street Blues
EXTD=
EXTT0=
EXTT1=
EXTT2=
EXTT3=
EXTT4=
EXTT5=
EXTT6=
EXTT7=
EXTT8=
EXTT9=
EXTT10=
EXTT11=
EXTT12=
EXTT13=
EXTT14=
EXTT15=
EXTT16=
EXTT17=
EXTT18=
EXTT19=
EXTT20=
EXTT21=
EXTT22=
EXTT23=
EXTT24=
PLAYORDER=
